<svg xmlns="http://www.w3.org/2000/svg" viewBox="0 0 197.8 64.9"><path d="M0 0v47.5h90.2v17.4l17.4-17.4h90.2V0z"/><path d="M14.7 11.9H17v23.6h-2.3zm35.9 19.4L35.4 11.9h-1.9v23.7h2.3V16.2l15.3 19.4h1.8V11.9h-2.3zm35.9-8.8H71.7V11.9h-2.3v23.7h2.3v-11h14.8v11h2.3V11.9h-2.3zm25.4 2.7l-8.2-13.3h-2.6l9.6 15.5v8.2h2.3v-8.2l9.5-15.5H120zm38-11.1c-1.7-1.4-4.1-2.1-7-2.1h-8.6v23.6h2.3V28h6.3c3 0 5.3-.7 7-2.1 1.7-1.4 2.6-3.4 2.6-5.9 0-2.5-.9-4.5-2.6-5.9zm-1.6 10.3c-1.2 1-3.1 1.5-5.4 1.5h-6.3V14.1h6.3c2.4 0 4.2.5 5.4 1.6 1.2 1 1.8 2.5 1.8 4.4 0 1.8-.6 3.3-1.8 4.3zm20.6 9v-8.8h12.3v-2.1h-12.3v-8.4h13.7v-2.2h-16v23.7h16.5v-2.2z" fill="#FFF"/></svg>