<svg xmlns="http://www.w3.org/2000/svg" viewBox="0 0 168.3 47.4"><path d="M94.5 0l-5.9 11.3L82.8 0h-3.5l7.8 14.2v8.4h3v-8.4L97.9 0zM64.4 9.7H53V0h-3v22.6h3V12.1h11.4v10.5h2.9V0h-2.9zM2.9 16.2L3.1 0h-3l.2 16.2zm110.4-2.5h5.3c1.3 0 2.4-.2 3.4-.5s1.8-.7 2.5-1.3c.7-.6 1.2-1.3 1.5-2.1.3-.9.5-1.8.5-2.9 0-1-.2-1.9-.5-2.8-.3-.8-.9-1.6-1.5-2.2-.7-.6-1.5-1.1-2.5-1.4-1-.3-2.1-.5-3.4-.5h-8.3v22.6h3v-8.9zm0-11.3h5.3c.9 0 1.6.1 2.2.4.6.2 1.1.6 1.5 1 .4.4.7.9.9 1.4.2.5.3 1.1.3 1.7 0 .6-.1 1.2-.3 1.8-.2.5-.5 1-.9 1.4-.4.4-.9.7-1.5.9-.6.2-1.4.3-2.2.3h-5.3V2.4zM1.7 19.5c-.6 0-1 .2-1.3.5-.3.3-.4.7-.4 1.1 0 .5.1.9.4 1.2.3.3.7.5 1.3.5.6 0 1-.2 1.3-.5.3-.3.4-.7.4-1.2s-.1-.9-.4-1.2c-.3-.3-.8-.4-1.3-.4zm152.5.6h-11.3v-8h9.7V9.7h-9.7V2.4h11.2V0h-14.2v22.6h14.3zM35.2 0h-3v17.5L20.8 0h-3v22.6h3V5.2l11.4 17.4h3zm6.7 32.8h2.8v-.6h-2.2v-1.7h2.2v-.6h-2.2v-1.3h2.2V28h-2.8zm-7.4-2.7c.3-.2.5-.6.5-1 0-.2-.1-.5-.2-.6-.2-.4-.7-.6-1.4-.6h-1v4.8h1.4c.4 0 .8-.1 1.1-.4.3-.3.5-.6.5-1.1 0-.2 0-.4-.1-.5-.2-.2-.4-.4-.8-.6zm-.3-.5c-.1.1-.2.2-.4.3-.1 0-.3.1-.6.1H33v-1.4h.5c.6 0 .9.2.9.6 0 .1-.1.3-.2.4zm.5 1.8c0 .2 0 .3-.1.4-.1.2-.3.3-.5.3-.1 0-.3.1-.6.1H33v-1.7h.2c.4 0 .7 0 .8.1.2 0 .4.1.5.3.2.1.2.3.2.5zm46.9-1.6L80.4 28h-.7l1.6 2.5v2.3h.6v-2.3l1.5-2.5h-.7zm40.2-1.2v-.7h-2.5v4.9h2.5v-.6H120v-1.6h1.7v-.7H120v-1.3zm-8.1 3.3l-1.4-3.9h-1v4.9h.7v-4 .1l1.3 3.8h1v-4.9h-.7v4zm-8.8-4.1c-1.5 0-1.6 1.4-1.6 2.5 0 1.3.2 2.5 1.6 2.5 1.4 0 1.6-1.2 1.6-2.5 0-1-.2-2.5-1.6-2.5zm.9 2.5c0 1.3-.1 2-.9 2s-.9-.7-.9-2 .3-1.8.9-1.8c.6 0 .9.5.9 1.8zm-41.5.6v.7c0 .2-.1.3-.2.4-.2.2-.4.3-.8.3-.2 0-.3 0-.5-.1-.3-.1-.5-.4-.5-.7V28h-.6v2.9c0 .5 0 .8.1 1 .1.3.3.6.6.8.3.2.6.3 1 .3s.7-.1.9-.3c.3-.2.4-.5.5-.8.1-.2.1-.5.1-1V28h-.6v2.9zM53.1 28h-.2l-2.3 4.8h.7l.7-1.5h2l.7 1.5h.7L53.1 28zm.6 2.7h-1.4l.7-1.5.7 1.5zm17.5-2.1h1v4.2h.6v-4.2h1.1V28h-2.7zm27.4-.1v-.6h-2.8v.7h2.1l-2.2 3.6v.6h2.9v-.6h-2.2zm44.2-.3c0-.2 0-.4-.2-.5-.2-.1-.4-.2-.7-.2-.2-.1-.4-.1-.6 0-.2.1-.4.2-.5.3-1.1.9-2.2 1.9-3.1 3-.9 1-1.8 2.1-2.7 3.1-.9 1.1-1.7 2.1-2.6 3.2-.9 1.1-1.9 2.2-2.9 3.2.1-.6.3-1.1.5-1.6s.3-1.1.5-1.7c.1-.2.2-.5.2-.7.1-.2.1-.5.2-.7.1-.2 0-.3-.1-.4-.1-.1-.2-.1-.4-.2-.3-.1-.6-.1-.8-.1-.2 0-.5.2-.7.5-.5.5-1 1.1-1.5 1.7-.5.6-1 1.1-1.5 1.7-.1.1-.1.2-.2.2-.1.1-.2.2-.2.3.3-.8.6-1.6 1.1-2.4.5-.8.9-1.7 1.3-2.5.1-.3.2-.5.3-.7v-.5c-.1-.1-.2-.2-.4-.3-.2-.1-.4-.2-.7-.3h-.1c-.2-.1-.5-.2-.7-.1-.2 0-.5.1-.7.2-.7.4-1.5.9-2.3 1.4-.8.5-1.5 1.1-2.3 1.7-.8.6-1.5 1.3-2.2 2-.7.7-1.3 1.4-1.9 2.1-.6.7-1 1.4-1.4 2.1-.4.7-.6 1.4-.7 2.1-.1.4.1.6.4.7.3.1.8.1 1.4 0 0-.9.3-1.8.9-2.8.6-1 1.3-1.9 2.2-2.9.9-.9 1.8-1.8 2.9-2.7 1.1-.8 2.1-1.6 3.2-2.2-.5 1-1.1 2-1.6 3s-1 2-1.5 3.1c-.4 1-.8 2.1-1.1 3.1-.3 1.1-.5 2.1-.5 3.2v.5c0 .1.1.2.2.2s.3.1.5.1h.8c.2-.8.5-1.7.9-2.6.4-.9.9-1.7 1.5-2.6.6-.9 1.2-1.7 1.8-2.5.7-.8 1.3-1.6 2-2.4.1-.1.2-.3.3-.4.1-.1.2-.2.3-.2s.1 0 .1.1 0 .2-.1.5c-.2.5-.3 1-.5 1.6-.2.5-.3 1.1-.3 1.6 0 .2.1.4.2.5.1.1.3.2.6.2s.6 0 .8-.1c.2-.1.4-.2.6-.4.9-.9 1.8-1.9 2.6-2.9s1.6-2.1 2.4-3.1c.8-1 1.6-2.1 2.5-3.1.9-1 1.8-1.9 2.8-2.7-.7 1.4-1.4 2.8-2 4.3-.6 1.5-1.2 3-1.7 4.5-.2.6-.4 1.3-.5 1.9-.1.6-.2 1.2-.1 1.7s.3.9.6 1.1c.4.3.9.3 1.8.2-.2-1.2-.1-2.3.1-3.5.3-1.2.6-2.4 1-3.6.4-1.2.9-2.4 1.4-3.6.3-1.2.7-2.4 1.1-3.7zm1.4 2.4c-.4 0-.7.1-.8.3-.2.2-.3.4-.4.6-.1.2-.1.5-.1.7 0 .2 0 .5.1.6.1.2.2.3.4.4h.7c.4 0 .6 0 .7-.1.1-.1.2-.2.3-.4 0-.1.1-.2.1-.3 0-.1.1-.1.1-.2s0-.1.1-.2c0-.1.1-.2.1-.3.1-.2.2-.4.2-.6 0-.2 0-.3-.1-.3-.1-.1-.2-.1-.5-.2h-.9zm19.7-3.1h.7c.4 0 .6 0 .7-.1.1-.1.2-.2.3-.4 0-.1.1-.2.1-.3 0-.1.1-.1.1-.2s0-.1.1-.2c0-.1.1-.2.1-.3.1-.2.2-.4.2-.6 0-.2 0-.3-.1-.3-.1-.1-.2-.1-.5-.2-.2 0-.5-.1-.8-.1-.4 0-.7.1-.8.3-.2.2-.3.4-.4.6s-.1.5-.1.7c0 .2 0 .5.1.6-.1.3.1.5.3.5z"/><path d="M167.5 29.1l-.9 1.2-.9 1.2c-.3.4-.7.7-1 1.1-.4.3-.7.6-1.2.9 0-.4.1-.7.2-1.1.1-.4.3-.8.5-1.2.2-.4.3-.8.5-1.2.2-.4.3-.8.3-1.1 0-.2 0-.3-.2-.4-.4-.2-.8-.2-1.3-.1s-.8.3-1.1.6c-.2.3-.4.6-.6 1.1-.1.2-.2.5-.3.7-.4.5-.9.9-1.3 1.4-.5.5-1 .9-1.5 1.4-.2-.3-.4-.6-.4-1s-.1-.8-.2-1.2c-.1-.5-.6-.7-1.5-.9h-1c-.3 0-.6.1-.9.3-.4.3-.9.6-1.4 1-.5.4-1 .9-1.5 1.3l-1.5 1.5c-.5.5-.9 1-1.3 1.4.1-.3.2-.6.4-1.1.2-.4.4-.9.6-1.3.2-.5.5-.9.8-1.4l.9-1.2c-.2 0-.5-.1-.7-.1-.3-.1-.5-.1-.8-.1s-.6 0-.8.1c-.3.1-.5.2-.7.4-.9.9-1.6 1.9-1.9 2.9-.1.3-.1.6-.2.8-.2.3-.4.5-.6.8l-.9 1.2c-.3.4-.7.7-1 1.1-.4.3-.7.6-1.2.9 0-.4.1-.7.2-1.1.1-.4.3-.8.5-1.2.2-.4.3-.8.5-1.2.2-.4.3-.8.3-1.1 0-.2 0-.3-.2-.4-.4-.2-.8-.2-1.3-.1s-.8.3-1.1.6c-.2.3-.4.6-.6 1.1-.2.4-.4.9-.6 1.3-.2.5-.3.9-.3 1.3s0 .8.2 1.1c.1.1.2.3.3.4.1.1.2.2.4.3.3.1.5.2.8.2h.9c.3 0 .5-.1.8-.2.3-.1.5-.3.6-.5.2-.2.4-.4.6-.7.3-.3.6-.7.9-1.1.2-.3.5-.6.7-.9v.6c.1.3.3.5.8.5h.8c.4 0 .7.1.9.1.2 0 .4 0 .5-.1.1 0 .2-.1.3-.2.1-.1.2-.3.3-.5.6-.9 1.3-1.9 2.1-2.7.8-.9 1.7-1.7 2.7-2.6.5-.4.8-.6 1.1-.7.2 0 .4.2.5.7 0 .3.1.6.1.9 0 .3.1.6.1.9 0 .2.1.3.2.5s.3.3.7.3c.4.1.7.1 1 0 .3 0 .6-.2.8-.4.4-.5.9-.9 1.3-1.3 0 .4 0 .8.2 1 .1.1.2.3.3.4.1.1.2.2.4.3.3.1.5.2.8.2h.9c.3 0 .5-.1.8-.2.3-.1.5-.3.6-.5.2-.2.4-.4.6-.7.3-.3.6-.7.9-1.1.3-.4.7-.8 1-1.3.3-.5.7-.9 1-1.4l-.7-.4z"/></svg>